<mxfile host="app.diagrams.net" modified="2023-10-01T19:12:42.658Z" agent="Mozilla/5.0 (Macintosh; Intel Mac OS X 10_15_7) AppleWebKit/605.1.15 (KHTML, like Gecko) Version/17.0 Safari/605.1.15" etag="WQxXIzK2HUYhwB6XDCcd" version="22.0.0" type="github">
  <diagram id="C5RBs43oDa-KdzZeNtuy" name="Page-1">
    <mxGraphModel dx="2550" dy="2164" grid="1" gridSize="10" guides="1" tooltips="1" connect="1" arrows="1" fold="1" page="1" pageScale="1" pageWidth="827" pageHeight="1169" math="0" shadow="0">
      <root>
        <mxCell id="WIyWlLk6GJQsqaUBKTNV-0" />
        <mxCell id="WIyWlLk6GJQsqaUBKTNV-1" parent="WIyWlLk6GJQsqaUBKTNV-0" />
        <mxCell id="czigmZRqxlCVBja09hjT-0" value="Bluetooth" style="swimlane;fontStyle=1;align=center;verticalAlign=top;childLayout=stackLayout;horizontal=1;startSize=26;horizontalStack=0;resizeParent=1;resizeParentMax=0;resizeLast=0;collapsible=1;marginBottom=0;whiteSpace=wrap;html=1;fillColor=#ffe6cc;strokeColor=#d79b00;" parent="WIyWlLk6GJQsqaUBKTNV-1" vertex="1">
          <mxGeometry x="-80" y="510" width="160" height="96" as="geometry" />
        </mxCell>
        <mxCell id="czigmZRqxlCVBja09hjT-3" value="setupBT()&lt;br&gt;connectBT()&lt;br&gt;sendMessage(string)&lt;br&gt;" style="text;strokeColor=#d79b00;fillColor=none;align=left;verticalAlign=top;spacingLeft=4;spacingRight=4;overflow=hidden;rotatable=0;points=[[0,0.5],[1,0.5]];portConstraint=eastwest;whiteSpace=wrap;html=1;" parent="czigmZRqxlCVBja09hjT-0" vertex="1">
          <mxGeometry y="26" width="160" height="70" as="geometry" />
        </mxCell>
        <mxCell id="czigmZRqxlCVBja09hjT-52" value="" style="edgeStyle=orthogonalEdgeStyle;rounded=0;orthogonalLoop=1;jettySize=auto;html=1;" parent="WIyWlLk6GJQsqaUBKTNV-1" source="czigmZRqxlCVBja09hjT-4" target="czigmZRqxlCVBja09hjT-31" edge="1">
          <mxGeometry relative="1" as="geometry">
            <Array as="points">
              <mxPoint x="280" y="500" />
              <mxPoint x="280" y="500" />
            </Array>
          </mxGeometry>
        </mxCell>
        <mxCell id="czigmZRqxlCVBja09hjT-4" value="Motor-Encoder" style="swimlane;fontStyle=1;align=center;verticalAlign=top;childLayout=stackLayout;horizontal=1;startSize=26;horizontalStack=0;resizeParent=1;resizeParentMax=0;resizeLast=0;collapsible=1;marginBottom=0;whiteSpace=wrap;html=1;fillColor=#ffe6cc;strokeColor=#d79b00;" parent="WIyWlLk6GJQsqaUBKTNV-1" vertex="1">
          <mxGeometry x="200" y="515" width="160" height="86" as="geometry" />
        </mxCell>
        <mxCell id="czigmZRqxlCVBja09hjT-7" value="setupMotorEncoder()&lt;br&gt;getCurPos():int&lt;br&gt;getVelocity():float&lt;br&gt;&lt;br&gt;" style="text;strokeColor=#d79b00;fillColor=none;align=left;verticalAlign=top;spacingLeft=4;spacingRight=4;overflow=hidden;rotatable=0;points=[[0,0.5],[1,0.5]];portConstraint=eastwest;whiteSpace=wrap;html=1;" parent="czigmZRqxlCVBja09hjT-4" vertex="1">
          <mxGeometry y="26" width="160" height="60" as="geometry" />
        </mxCell>
        <mxCell id="czigmZRqxlCVBja09hjT-8" value="Distance Sensor" style="swimlane;fontStyle=1;align=center;verticalAlign=top;childLayout=stackLayout;horizontal=1;startSize=26;horizontalStack=0;resizeParent=1;resizeParentMax=0;resizeLast=0;collapsible=1;marginBottom=0;whiteSpace=wrap;html=1;fillColor=#ffe6cc;strokeColor=#d79b00;" parent="WIyWlLk6GJQsqaUBKTNV-1" vertex="1">
          <mxGeometry x="-280" y="515" width="160" height="96" as="geometry" />
        </mxCell>
        <mxCell id="czigmZRqxlCVBja09hjT-11" value="setupDistanceSensor()&lt;br&gt;getLeftDist():float&lt;br&gt;getRightDist():float&lt;br&gt;getFrontDist():float" style="text;strokeColor=#d79b00;fillColor=none;align=left;verticalAlign=top;spacingLeft=4;spacingRight=4;overflow=hidden;rotatable=0;points=[[0,0.5],[1,0.5]];portConstraint=eastwest;whiteSpace=wrap;html=1;" parent="czigmZRqxlCVBja09hjT-8" vertex="1">
          <mxGeometry y="26" width="160" height="70" as="geometry" />
        </mxCell>
        <mxCell id="czigmZRqxlCVBja09hjT-51" style="edgeStyle=orthogonalEdgeStyle;rounded=0;orthogonalLoop=1;jettySize=auto;html=1;entryX=0.494;entryY=1;entryDx=0;entryDy=0;entryPerimeter=0;" parent="WIyWlLk6GJQsqaUBKTNV-1" source="czigmZRqxlCVBja09hjT-12" target="czigmZRqxlCVBja09hjT-31" edge="1">
          <mxGeometry relative="1" as="geometry" />
        </mxCell>
        <mxCell id="czigmZRqxlCVBja09hjT-12" value="Motor" style="swimlane;fontStyle=1;align=center;verticalAlign=top;childLayout=stackLayout;horizontal=1;startSize=26;horizontalStack=0;resizeParent=1;resizeParentMax=0;resizeLast=0;collapsible=1;marginBottom=0;whiteSpace=wrap;html=1;fillColor=#ffe6cc;strokeColor=#d79b00;" parent="WIyWlLk6GJQsqaUBKTNV-1" vertex="1">
          <mxGeometry x="380" y="505" width="160" height="106" as="geometry" />
        </mxCell>
        <mxCell id="czigmZRqxlCVBja09hjT-15" value="setupMotor()&lt;br&gt;setMotor1Dir(int)&lt;br&gt;setMotor2Dir(int)&lt;br&gt;setMotor1Speed(float)&lt;br&gt;setMotor2Speed(float)" style="text;strokeColor=#d79b00;fillColor=none;align=left;verticalAlign=top;spacingLeft=4;spacingRight=4;overflow=hidden;rotatable=0;points=[[0,0.5],[1,0.5]];portConstraint=eastwest;whiteSpace=wrap;html=1;" parent="czigmZRqxlCVBja09hjT-12" vertex="1">
          <mxGeometry y="26" width="160" height="80" as="geometry" />
        </mxCell>
        <mxCell id="czigmZRqxlCVBja09hjT-16" value="LED" style="swimlane;fontStyle=1;align=center;verticalAlign=top;childLayout=stackLayout;horizontal=1;startSize=26;horizontalStack=0;resizeParent=1;resizeParentMax=0;resizeLast=0;collapsible=1;marginBottom=0;whiteSpace=wrap;html=1;fillColor=#ffe6cc;strokeColor=#d79b00;" parent="WIyWlLk6GJQsqaUBKTNV-1" vertex="1">
          <mxGeometry x="570" y="505" width="160" height="106" as="geometry" />
        </mxCell>
        <mxCell id="czigmZRqxlCVBja09hjT-19" value="setLED1(int)&lt;br&gt;setLED2(int)&lt;br&gt;setLED3(int)" style="text;strokeColor=#d79b00;fillColor=none;align=left;verticalAlign=top;spacingLeft=4;spacingRight=4;overflow=hidden;rotatable=0;points=[[0,0.5],[1,0.5]];portConstraint=eastwest;whiteSpace=wrap;html=1;" parent="czigmZRqxlCVBja09hjT-16" vertex="1">
          <mxGeometry y="26" width="160" height="80" as="geometry" />
        </mxCell>
        <mxCell id="czigmZRqxlCVBja09hjT-20" value="Battery Voltage" style="swimlane;fontStyle=1;align=center;verticalAlign=top;childLayout=stackLayout;horizontal=1;startSize=26;horizontalStack=0;resizeParent=1;resizeParentMax=0;resizeLast=0;collapsible=1;marginBottom=0;whiteSpace=wrap;html=1;fillColor=#ffe6cc;strokeColor=#d79b00;" parent="WIyWlLk6GJQsqaUBKTNV-1" vertex="1">
          <mxGeometry x="760" y="505" width="160" height="76" as="geometry" />
        </mxCell>
        <mxCell id="czigmZRqxlCVBja09hjT-23" value="getBatteryVoltage()" style="text;strokeColor=#d79b00;fillColor=none;align=left;verticalAlign=top;spacingLeft=4;spacingRight=4;overflow=hidden;rotatable=0;points=[[0,0.5],[1,0.5]];portConstraint=eastwest;whiteSpace=wrap;html=1;" parent="czigmZRqxlCVBja09hjT-20" vertex="1">
          <mxGeometry y="26" width="160" height="50" as="geometry" />
        </mxCell>
        <mxCell id="czigmZRqxlCVBja09hjT-26" value="Button" style="swimlane;fontStyle=1;align=center;verticalAlign=top;childLayout=stackLayout;horizontal=1;startSize=26;horizontalStack=0;resizeParent=1;resizeParentMax=0;resizeLast=0;collapsible=1;marginBottom=0;whiteSpace=wrap;html=1;fillColor=#ffe6cc;strokeColor=#d79b00;" parent="WIyWlLk6GJQsqaUBKTNV-1" vertex="1">
          <mxGeometry x="1270" y="520" width="160" height="66" as="geometry" />
        </mxCell>
        <mxCell id="czigmZRqxlCVBja09hjT-29" value="setupButton(*func)" style="text;strokeColor=#d79b00;fillColor=none;align=left;verticalAlign=top;spacingLeft=4;spacingRight=4;overflow=hidden;rotatable=0;points=[[0,0.5],[1,0.5]];portConstraint=eastwest;whiteSpace=wrap;html=1;" parent="czigmZRqxlCVBja09hjT-26" vertex="1">
          <mxGeometry y="26" width="160" height="40" as="geometry" />
        </mxCell>
        <mxCell id="czigmZRqxlCVBja09hjT-46" style="edgeStyle=orthogonalEdgeStyle;rounded=0;orthogonalLoop=1;jettySize=auto;html=1;entryX=0;entryY=0.5;entryDx=0;entryDy=0;" parent="WIyWlLk6GJQsqaUBKTNV-1" source="czigmZRqxlCVBja09hjT-30" target="czigmZRqxlCVBja09hjT-37" edge="1">
          <mxGeometry relative="1" as="geometry" />
        </mxCell>
        <mxCell id="czigmZRqxlCVBja09hjT-63" style="edgeStyle=orthogonalEdgeStyle;rounded=0;orthogonalLoop=1;jettySize=auto;html=1;" parent="WIyWlLk6GJQsqaUBKTNV-1" source="czigmZRqxlCVBja09hjT-30" target="czigmZRqxlCVBja09hjT-57" edge="1">
          <mxGeometry relative="1" as="geometry" />
        </mxCell>
        <mxCell id="czigmZRqxlCVBja09hjT-30" value="Motor Speed" style="swimlane;fontStyle=0;childLayout=stackLayout;horizontal=1;startSize=26;fillColor=#d5e8d4;horizontalStack=0;resizeParent=1;resizeParentMax=0;resizeLast=0;collapsible=1;marginBottom=0;whiteSpace=wrap;html=1;strokeColor=#82b366;" parent="WIyWlLk6GJQsqaUBKTNV-1" vertex="1">
          <mxGeometry x="200" y="340" width="160" height="70" as="geometry" />
        </mxCell>
        <mxCell id="czigmZRqxlCVBja09hjT-31" value="setMotorLeftSpeed(float)&lt;br&gt;setMotorRightSpeed(float)&lt;br&gt;" style="text;strokeColor=none;fillColor=none;align=left;verticalAlign=top;spacingLeft=4;spacingRight=4;overflow=hidden;rotatable=0;points=[[0,0.5],[1,0.5]];portConstraint=eastwest;whiteSpace=wrap;html=1;" parent="czigmZRqxlCVBja09hjT-30" vertex="1">
          <mxGeometry y="26" width="160" height="44" as="geometry" />
        </mxCell>
        <mxCell id="czigmZRqxlCVBja09hjT-34" value="Forward Drive" style="swimlane;fontStyle=0;childLayout=stackLayout;horizontal=1;startSize=26;fillColor=#d5e8d4;horizontalStack=0;resizeParent=1;resizeParentMax=0;resizeLast=0;collapsible=1;marginBottom=0;whiteSpace=wrap;html=1;strokeColor=#82b366;" parent="WIyWlLk6GJQsqaUBKTNV-1" vertex="1">
          <mxGeometry x="100" y="200" width="140" height="70" as="geometry" />
        </mxCell>
        <mxCell id="czigmZRqxlCVBja09hjT-57" value="driveDistance(float)&lt;br&gt;driveCells(int)" style="text;strokeColor=none;fillColor=none;align=left;verticalAlign=top;spacingLeft=4;spacingRight=4;overflow=hidden;rotatable=0;points=[[0,0.5],[1,0.5]];portConstraint=eastwest;whiteSpace=wrap;html=1;" parent="czigmZRqxlCVBja09hjT-34" vertex="1">
          <mxGeometry y="26" width="140" height="44" as="geometry" />
        </mxCell>
        <mxCell id="WBTEZlv65BjR6Y_WXB0v-9" style="edgeStyle=elbowEdgeStyle;rounded=0;orthogonalLoop=1;jettySize=auto;html=1;fontSize=12;startSize=8;endSize=8;elbow=vertical;" edge="1" parent="WIyWlLk6GJQsqaUBKTNV-1" source="czigmZRqxlCVBja09hjT-36" target="WBTEZlv65BjR6Y_WXB0v-13">
          <mxGeometry relative="1" as="geometry">
            <mxPoint x="370.00000000000045" y="200" as="sourcePoint" />
            <mxPoint x="270" y="20" as="targetPoint" />
          </mxGeometry>
        </mxCell>
        <mxCell id="czigmZRqxlCVBja09hjT-36" value="Rotate Drive" style="swimlane;fontStyle=0;childLayout=stackLayout;horizontal=1;startSize=26;fillColor=#d5e8d4;horizontalStack=0;resizeParent=1;resizeParentMax=0;resizeLast=0;collapsible=1;marginBottom=0;whiteSpace=wrap;html=1;strokeColor=#82b366;" parent="WIyWlLk6GJQsqaUBKTNV-1" vertex="1">
          <mxGeometry x="310" y="200" width="140" height="70" as="geometry" />
        </mxCell>
        <mxCell id="czigmZRqxlCVBja09hjT-37" value="rotateDegrees()" style="text;strokeColor=none;fillColor=none;align=left;verticalAlign=top;spacingLeft=4;spacingRight=4;overflow=hidden;rotatable=0;points=[[0,0.5],[1,0.5]];portConstraint=eastwest;whiteSpace=wrap;html=1;" parent="czigmZRqxlCVBja09hjT-36" vertex="1">
          <mxGeometry y="26" width="140" height="44" as="geometry" />
        </mxCell>
        <mxCell id="WBTEZlv65BjR6Y_WXB0v-16" style="edgeStyle=elbowEdgeStyle;rounded=0;orthogonalLoop=1;jettySize=auto;html=1;entryX=1;entryY=0.5;entryDx=0;entryDy=0;fontSize=12;startSize=8;endSize=8;" edge="1" parent="WIyWlLk6GJQsqaUBKTNV-1" source="czigmZRqxlCVBja09hjT-40" target="WBTEZlv65BjR6Y_WXB0v-12">
          <mxGeometry relative="1" as="geometry">
            <Array as="points">
              <mxPoint x="550" y="90" />
            </Array>
          </mxGeometry>
        </mxCell>
        <mxCell id="czigmZRqxlCVBja09hjT-40" value="Wall detector" style="swimlane;fontStyle=0;childLayout=stackLayout;horizontal=1;startSize=26;fillColor=#d5e8d4;horizontalStack=0;resizeParent=1;resizeParentMax=0;resizeLast=0;collapsible=1;marginBottom=0;whiteSpace=wrap;html=1;strokeColor=#82b366;" parent="WIyWlLk6GJQsqaUBKTNV-1" vertex="1">
          <mxGeometry x="480" y="200" width="140" height="104" as="geometry" />
        </mxCell>
        <mxCell id="czigmZRqxlCVBja09hjT-61" value="isWallRight():int" style="text;strokeColor=none;fillColor=none;align=left;verticalAlign=top;spacingLeft=4;spacingRight=4;overflow=hidden;rotatable=0;points=[[0,0.5],[1,0.5]];portConstraint=eastwest;whiteSpace=wrap;html=1;" parent="czigmZRqxlCVBja09hjT-40" vertex="1">
          <mxGeometry y="26" width="140" height="26" as="geometry" />
        </mxCell>
        <mxCell id="czigmZRqxlCVBja09hjT-41" value="isWallLeft():int&lt;br&gt;" style="text;strokeColor=none;fillColor=none;align=left;verticalAlign=top;spacingLeft=4;spacingRight=4;overflow=hidden;rotatable=0;points=[[0,0.5],[1,0.5]];portConstraint=eastwest;whiteSpace=wrap;html=1;" parent="czigmZRqxlCVBja09hjT-40" vertex="1">
          <mxGeometry y="52" width="140" height="26" as="geometry" />
        </mxCell>
        <mxCell id="czigmZRqxlCVBja09hjT-62" value="isWallFront():int" style="text;strokeColor=none;fillColor=none;align=left;verticalAlign=top;spacingLeft=4;spacingRight=4;overflow=hidden;rotatable=0;points=[[0,0.5],[1,0.5]];portConstraint=eastwest;whiteSpace=wrap;html=1;" parent="czigmZRqxlCVBja09hjT-40" vertex="1">
          <mxGeometry y="78" width="140" height="26" as="geometry" />
        </mxCell>
        <mxCell id="czigmZRqxlCVBja09hjT-42" value="Debugger" style="swimlane;fontStyle=0;childLayout=stackLayout;horizontal=1;startSize=26;fillColor=#d5e8d4;horizontalStack=0;resizeParent=1;resizeParentMax=0;resizeLast=0;collapsible=1;marginBottom=0;whiteSpace=wrap;html=1;strokeColor=#82b366;" parent="WIyWlLk6GJQsqaUBKTNV-1" vertex="1">
          <mxGeometry x="920" y="200" width="140" height="70" as="geometry" />
        </mxCell>
        <mxCell id="czigmZRqxlCVBja09hjT-43" value="sendDebugMessage(str)&lt;br&gt;blinkLED1()" style="text;strokeColor=none;fillColor=none;align=left;verticalAlign=top;spacingLeft=4;spacingRight=4;overflow=hidden;rotatable=0;points=[[0,0.5],[1,0.5]];portConstraint=eastwest;whiteSpace=wrap;html=1;" parent="czigmZRqxlCVBja09hjT-42" vertex="1">
          <mxGeometry y="26" width="140" height="44" as="geometry" />
        </mxCell>
        <mxCell id="czigmZRqxlCVBja09hjT-53" value="Contoller" style="swimlane;fontStyle=0;childLayout=stackLayout;horizontal=1;startSize=26;fillColor=#d5e8d4;horizontalStack=0;resizeParent=1;resizeParentMax=0;resizeLast=0;collapsible=1;marginBottom=0;whiteSpace=wrap;html=1;strokeColor=#82b366;" parent="WIyWlLk6GJQsqaUBKTNV-1" vertex="1">
          <mxGeometry x="-60" y="330" width="170" height="110" as="geometry" />
        </mxCell>
        <mxCell id="czigmZRqxlCVBja09hjT-54" value="setupPI(K_I, K_P, struct controller)" style="text;strokeColor=none;fillColor=none;align=left;verticalAlign=top;spacingLeft=4;spacingRight=4;overflow=hidden;rotatable=0;points=[[0,0.5],[1,0.5]];portConstraint=eastwest;whiteSpace=wrap;html=1;" parent="czigmZRqxlCVBja09hjT-53" vertex="1">
          <mxGeometry y="26" width="170" height="44" as="geometry" />
        </mxCell>
        <mxCell id="czigmZRqxlCVBja09hjT-56" value="pi_control(*controller, setValue, measuredValue)" style="text;strokeColor=none;fillColor=none;align=left;verticalAlign=top;spacingLeft=4;spacingRight=4;overflow=hidden;rotatable=0;points=[[0,0.5],[1,0.5]];portConstraint=eastwest;whiteSpace=wrap;html=1;" parent="czigmZRqxlCVBja09hjT-53" vertex="1">
          <mxGeometry y="70" width="170" height="40" as="geometry" />
        </mxCell>
        <mxCell id="czigmZRqxlCVBja09hjT-67" style="edgeStyle=orthogonalEdgeStyle;rounded=0;orthogonalLoop=1;jettySize=auto;html=1;exitX=1;exitY=0.5;exitDx=0;exitDy=0;entryX=-0.019;entryY=0.32;entryDx=0;entryDy=0;entryPerimeter=0;" parent="WIyWlLk6GJQsqaUBKTNV-1" source="czigmZRqxlCVBja09hjT-54" target="czigmZRqxlCVBja09hjT-31" edge="1">
          <mxGeometry relative="1" as="geometry">
            <Array as="points">
              <mxPoint x="110" y="380" />
            </Array>
          </mxGeometry>
        </mxCell>
        <mxCell id="WBTEZlv65BjR6Y_WXB0v-10" style="edgeStyle=none;curved=1;rounded=0;orthogonalLoop=1;jettySize=auto;html=1;fontSize=12;startSize=8;endSize=8;" edge="1" parent="WIyWlLk6GJQsqaUBKTNV-1" source="czigmZRqxlCVBja09hjT-68" target="czigmZRqxlCVBja09hjT-75">
          <mxGeometry relative="1" as="geometry" />
        </mxCell>
        <mxCell id="czigmZRqxlCVBja09hjT-68" value="Mapper" style="swimlane;fontStyle=0;childLayout=stackLayout;horizontal=1;startSize=26;fillColor=#dae8fc;horizontalStack=0;resizeParent=1;resizeParentMax=0;resizeLast=0;collapsible=1;marginBottom=0;whiteSpace=wrap;html=1;strokeColor=#6c8ebf;" parent="WIyWlLk6GJQsqaUBKTNV-1" vertex="1">
          <mxGeometry x="200" y="-110" width="140" height="172" as="geometry" />
        </mxCell>
        <mxCell id="czigmZRqxlCVBja09hjT-70" value="initMapping()" style="text;strokeColor=none;fillColor=none;align=left;verticalAlign=top;spacingLeft=4;spacingRight=4;overflow=hidden;rotatable=0;points=[[0,0.5],[1,0.5]];portConstraint=eastwest;whiteSpace=wrap;html=1;" parent="czigmZRqxlCVBja09hjT-68" vertex="1">
          <mxGeometry y="26" width="140" height="26" as="geometry" />
        </mxCell>
        <mxCell id="czigmZRqxlCVBja09hjT-80" value="initMousePos()" style="text;strokeColor=none;fillColor=none;align=left;verticalAlign=top;spacingLeft=4;spacingRight=4;overflow=hidden;rotatable=0;points=[[0,0.5],[1,0.5]];portConstraint=eastwest;whiteSpace=wrap;html=1;rotation=0;" parent="czigmZRqxlCVBja09hjT-68" vertex="1">
          <mxGeometry y="52" width="140" height="30" as="geometry" />
        </mxCell>
        <mxCell id="czigmZRqxlCVBja09hjT-94" value="runMapping()" style="text;strokeColor=none;fillColor=none;align=left;verticalAlign=top;spacingLeft=4;spacingRight=4;overflow=hidden;rotatable=0;points=[[0,0.5],[1,0.5]];portConstraint=eastwest;whiteSpace=wrap;html=1;" parent="czigmZRqxlCVBja09hjT-68" vertex="1">
          <mxGeometry y="82" width="140" height="30" as="geometry" />
        </mxCell>
        <mxCell id="WBTEZlv65BjR6Y_WXB0v-12" value="updateMap()" style="text;strokeColor=none;fillColor=none;align=left;verticalAlign=top;spacingLeft=4;spacingRight=4;overflow=hidden;rotatable=0;points=[[0,0.5],[1,0.5]];portConstraint=eastwest;whiteSpace=wrap;html=1;" vertex="1" parent="czigmZRqxlCVBja09hjT-68">
          <mxGeometry y="112" width="140" height="30" as="geometry" />
        </mxCell>
        <mxCell id="WBTEZlv65BjR6Y_WXB0v-13" value="floodfill()" style="text;strokeColor=none;fillColor=none;align=left;verticalAlign=top;spacingLeft=4;spacingRight=4;overflow=hidden;rotatable=0;points=[[0,0.5],[1,0.5]];portConstraint=eastwest;whiteSpace=wrap;html=1;" vertex="1" parent="czigmZRqxlCVBja09hjT-68">
          <mxGeometry y="142" width="140" height="30" as="geometry" />
        </mxCell>
        <mxCell id="czigmZRqxlCVBja09hjT-74" value="MouseLoop" style="swimlane;fontStyle=0;childLayout=stackLayout;horizontal=1;startSize=26;fillColor=#dae8fc;horizontalStack=0;resizeParent=1;resizeParentMax=0;resizeLast=0;collapsible=1;marginBottom=0;whiteSpace=wrap;html=1;strokeColor=#6c8ebf;" parent="WIyWlLk6GJQsqaUBKTNV-1" vertex="1">
          <mxGeometry x="200" y="-300" width="140" height="52" as="geometry" />
        </mxCell>
        <mxCell id="czigmZRqxlCVBja09hjT-75" value="main()" style="text;strokeColor=none;fillColor=none;align=left;verticalAlign=top;spacingLeft=4;spacingRight=4;overflow=hidden;rotatable=0;points=[[0,0.5],[1,0.5]];portConstraint=eastwest;whiteSpace=wrap;html=1;" parent="czigmZRqxlCVBja09hjT-74" vertex="1">
          <mxGeometry y="26" width="140" height="26" as="geometry" />
        </mxCell>
        <mxCell id="BMpjHLZUU6J1PY0x6JFE-3" value="Logic Layer" style="text;html=1;strokeColor=#6c8ebf;fillColor=#dae8fc;align=center;verticalAlign=middle;whiteSpace=wrap;rounded=0;" parent="WIyWlLk6GJQsqaUBKTNV-1" vertex="1">
          <mxGeometry x="1340" y="80" width="60" height="30" as="geometry" />
        </mxCell>
        <mxCell id="BMpjHLZUU6J1PY0x6JFE-4" value="Control Layer" style="text;html=1;strokeColor=#82b366;fillColor=#d5e8d4;align=center;verticalAlign=middle;whiteSpace=wrap;rounded=0;" parent="WIyWlLk6GJQsqaUBKTNV-1" vertex="1">
          <mxGeometry x="1340" y="130" width="60" height="30" as="geometry" />
        </mxCell>
        <mxCell id="BMpjHLZUU6J1PY0x6JFE-5" value="Driver Layer" style="text;html=1;strokeColor=#d79b00;fillColor=#ffe6cc;align=center;verticalAlign=middle;whiteSpace=wrap;rounded=0;" parent="WIyWlLk6GJQsqaUBKTNV-1" vertex="1">
          <mxGeometry x="1340" y="180" width="60" height="30" as="geometry" />
        </mxCell>
        <mxCell id="WBTEZlv65BjR6Y_WXB0v-7" value="" style="edgeStyle=none;curved=1;rounded=0;orthogonalLoop=1;jettySize=auto;html=1;fontSize=12;startSize=8;endSize=8;" edge="1" parent="WIyWlLk6GJQsqaUBKTNV-1" source="sBKcXWiqpbYNCpysFKwK-0" target="czigmZRqxlCVBja09hjT-19">
          <mxGeometry relative="1" as="geometry" />
        </mxCell>
        <mxCell id="sBKcXWiqpbYNCpysFKwK-0" value="IOconfig" style="swimlane;fontStyle=1;align=center;verticalAlign=top;childLayout=stackLayout;horizontal=1;startSize=26;horizontalStack=0;resizeParent=1;resizeParentMax=0;resizeLast=0;collapsible=1;marginBottom=0;whiteSpace=wrap;html=1;fillColor=#ffe6cc;strokeColor=#d79b00;" parent="WIyWlLk6GJQsqaUBKTNV-1" vertex="1">
          <mxGeometry x="570" y="660" width="160" height="90" as="geometry" />
        </mxCell>
        <mxCell id="sBKcXWiqpbYNCpysFKwK-1" value="setupIO()" style="text;strokeColor=#d79b00;fillColor=none;align=left;verticalAlign=top;spacingLeft=4;spacingRight=4;overflow=hidden;rotatable=0;points=[[0,0.5],[1,0.5]];portConstraint=eastwest;whiteSpace=wrap;html=1;" parent="sBKcXWiqpbYNCpysFKwK-0" vertex="1">
          <mxGeometry y="26" width="160" height="64" as="geometry" />
        </mxCell>
        <mxCell id="mPs-lK0LFL4X5B1w4SSj-5" value="LaneFollower" style="swimlane;fontStyle=0;childLayout=stackLayout;horizontal=1;startSize=26;fillColor=#d5e8d4;horizontalStack=0;resizeParent=1;resizeParentMax=0;resizeLast=0;collapsible=1;marginBottom=0;whiteSpace=wrap;html=1;strokeColor=#82b366;" parent="WIyWlLk6GJQsqaUBKTNV-1" vertex="1">
          <mxGeometry x="-270" y="210" width="170" height="160" as="geometry" />
        </mxCell>
        <mxCell id="mPs-lK0LFL4X5B1w4SSj-6" value="setupLineFollowController()" style="text;strokeColor=none;fillColor=none;align=left;verticalAlign=top;spacingLeft=4;spacingRight=4;overflow=hidden;rotatable=0;points=[[0,0.5],[1,0.5]];portConstraint=eastwest;whiteSpace=wrap;html=1;" parent="mPs-lK0LFL4X5B1w4SSj-5" vertex="1">
          <mxGeometry y="26" width="170" height="24" as="geometry" />
        </mxCell>
        <mxCell id="mPs-lK0LFL4X5B1w4SSj-13" value="LineFollowCotroller()" style="text;strokeColor=none;fillColor=none;align=left;verticalAlign=top;spacingLeft=4;spacingRight=4;overflow=hidden;rotatable=0;points=[[0,0.5],[1,0.5]];portConstraint=eastwest;whiteSpace=wrap;html=1;" parent="mPs-lK0LFL4X5B1w4SSj-5" vertex="1">
          <mxGeometry y="50" width="170" height="20" as="geometry" />
        </mxCell>
        <mxCell id="mPs-lK0LFL4X5B1w4SSj-14" value="setupLineControllerTimer(int periodInMS)" style="text;strokeColor=none;fillColor=none;align=left;verticalAlign=top;spacingLeft=4;spacingRight=4;overflow=hidden;rotatable=0;points=[[0,0.5],[1,0.5]];portConstraint=eastwest;whiteSpace=wrap;html=1;" parent="mPs-lK0LFL4X5B1w4SSj-5" vertex="1">
          <mxGeometry y="70" width="170" height="40" as="geometry" />
        </mxCell>
        <mxCell id="mPs-lK0LFL4X5B1w4SSj-11" value="startLineController()" style="text;strokeColor=none;fillColor=none;align=left;verticalAlign=top;spacingLeft=4;spacingRight=4;overflow=hidden;rotatable=0;points=[[0,0.5],[1,0.5]];portConstraint=eastwest;whiteSpace=wrap;html=1;" parent="mPs-lK0LFL4X5B1w4SSj-5" vertex="1">
          <mxGeometry y="110" width="170" height="20" as="geometry" />
        </mxCell>
        <mxCell id="mPs-lK0LFL4X5B1w4SSj-7" value="stopLineController()" style="text;strokeColor=none;fillColor=none;align=left;verticalAlign=top;spacingLeft=4;spacingRight=4;overflow=hidden;rotatable=0;points=[[0,0.5],[1,0.5]];portConstraint=eastwest;whiteSpace=wrap;html=1;" parent="mPs-lK0LFL4X5B1w4SSj-5" vertex="1">
          <mxGeometry y="130" width="170" height="30" as="geometry" />
        </mxCell>
        <mxCell id="mPs-lK0LFL4X5B1w4SSj-10" style="edgeStyle=none;curved=1;rounded=0;orthogonalLoop=1;jettySize=auto;html=1;fontSize=12;startSize=8;endSize=8;" parent="WIyWlLk6GJQsqaUBKTNV-1" source="mPs-lK0LFL4X5B1w4SSj-6" target="czigmZRqxlCVBja09hjT-57" edge="1">
          <mxGeometry relative="1" as="geometry" />
        </mxCell>
        <mxCell id="WBTEZlv65BjR6Y_WXB0v-4" style="edgeStyle=orthogonalEdgeStyle;rounded=0;orthogonalLoop=1;jettySize=auto;html=1;entryX=0.439;entryY=1.124;entryDx=0;entryDy=0;entryPerimeter=0;fontSize=12;startSize=8;endSize=8;exitX=0.5;exitY=0;exitDx=0;exitDy=0;" edge="1" parent="WIyWlLk6GJQsqaUBKTNV-1" source="czigmZRqxlCVBja09hjT-8" target="mPs-lK0LFL4X5B1w4SSj-7">
          <mxGeometry relative="1" as="geometry">
            <Array as="points">
              <mxPoint x="-195" y="515" />
            </Array>
          </mxGeometry>
        </mxCell>
        <mxCell id="WBTEZlv65BjR6Y_WXB0v-6" style="edgeStyle=orthogonalEdgeStyle;rounded=0;orthogonalLoop=1;jettySize=auto;html=1;entryX=0.43;entryY=1.076;entryDx=0;entryDy=0;entryPerimeter=0;fontSize=12;startSize=8;endSize=8;exitX=0;exitY=0.5;exitDx=0;exitDy=0;" edge="1" parent="WIyWlLk6GJQsqaUBKTNV-1" source="czigmZRqxlCVBja09hjT-56" target="mPs-lK0LFL4X5B1w4SSj-7">
          <mxGeometry relative="1" as="geometry">
            <Array as="points">
              <mxPoint x="-197" y="420" />
            </Array>
          </mxGeometry>
        </mxCell>
        <mxCell id="WBTEZlv65BjR6Y_WXB0v-8" style="edgeStyle=elbowEdgeStyle;rounded=0;orthogonalLoop=1;jettySize=auto;html=1;fontSize=12;startSize=8;endSize=8;elbow=vertical;" edge="1" parent="WIyWlLk6GJQsqaUBKTNV-1" source="czigmZRqxlCVBja09hjT-34" target="WBTEZlv65BjR6Y_WXB0v-13">
          <mxGeometry relative="1" as="geometry">
            <mxPoint x="170" y="198.28" as="sourcePoint" />
            <mxPoint x="270" y="20" as="targetPoint" />
          </mxGeometry>
        </mxCell>
        <mxCell id="WBTEZlv65BjR6Y_WXB0v-24" value="Neighbors" style="swimlane;fontStyle=0;childLayout=stackLayout;horizontal=1;startSize=26;fillColor=#dae8fc;horizontalStack=0;resizeParent=1;resizeParentMax=0;resizeLast=0;collapsible=1;marginBottom=0;whiteSpace=wrap;html=1;strokeColor=#6c8ebf;" vertex="1" parent="WIyWlLk6GJQsqaUBKTNV-1">
          <mxGeometry x="-10" y="-103" width="140" height="158" as="geometry" />
        </mxCell>
        <mxCell id="WBTEZlv65BjR6Y_WXB0v-25" value="getNeighborPosition(Position pos, int dir);" style="text;strokeColor=none;fillColor=none;align=left;verticalAlign=top;spacingLeft=4;spacingRight=4;overflow=hidden;rotatable=0;points=[[0,0.5],[1,0.5]];portConstraint=eastwest;whiteSpace=wrap;html=1;" vertex="1" parent="WBTEZlv65BjR6Y_WXB0v-24">
          <mxGeometry y="26" width="140" height="44" as="geometry" />
        </mxCell>
        <mxCell id="WBTEZlv65BjR6Y_WXB0v-26" value="getNeighbors(Position pos)" style="text;strokeColor=none;fillColor=none;align=left;verticalAlign=top;spacingLeft=4;spacingRight=4;overflow=hidden;rotatable=0;points=[[0,0.5],[1,0.5]];portConstraint=eastwest;whiteSpace=wrap;html=1;" vertex="1" parent="WBTEZlv65BjR6Y_WXB0v-24">
          <mxGeometry y="70" width="140" height="44" as="geometry" />
        </mxCell>
        <mxCell id="WBTEZlv65BjR6Y_WXB0v-27" value="minNeighbor(Position currentPos)" style="text;strokeColor=none;fillColor=none;align=left;verticalAlign=top;spacingLeft=4;spacingRight=4;overflow=hidden;rotatable=0;points=[[0,0.5],[1,0.5]];portConstraint=eastwest;whiteSpace=wrap;html=1;" vertex="1" parent="WBTEZlv65BjR6Y_WXB0v-24">
          <mxGeometry y="114" width="140" height="44" as="geometry" />
        </mxCell>
        <mxCell id="WBTEZlv65BjR6Y_WXB0v-28" style="edgeStyle=none;curved=1;rounded=0;orthogonalLoop=1;jettySize=auto;html=1;entryX=0;entryY=0.5;entryDx=0;entryDy=0;fontSize=12;startSize=8;endSize=8;" edge="1" parent="WIyWlLk6GJQsqaUBKTNV-1" source="WBTEZlv65BjR6Y_WXB0v-26" target="czigmZRqxlCVBja09hjT-94">
          <mxGeometry relative="1" as="geometry" />
        </mxCell>
      </root>
    </mxGraphModel>
  </diagram>
</mxfile>
